<svg width="147" height="34" viewBox="0 0 147 34" fill="none" xmlns="http://www.w3.org/2000/svg">
<path d="M21.1706 0.597246H26.3476L21.2245 33.3848H16.479L13.6927 15.499L11.0683 33.3848H6.34072L0.858154 0.597246H6.03513L8.62362 18.1594L10.9964 0.597246H16.1734L18.7619 18.1594L21.1706 0.597246Z" fill="white"/>
<path d="M35.4432 33.3848H30.5179V0.597246H35.4432V33.3848Z" fill="white"/>
<path d="M55.4321 25.5474C55.4321 27.7045 54.6712 29.55 53.1492 31.0839C51.6273 32.6178 49.7998 33.3848 47.6667 33.3848H39.9012V0.597246H47.6667C49.8237 0.597246 51.6572 1.36421 53.1672 2.89812C54.6771 4.43204 55.4321 6.27155 55.4321 8.41664V25.5474ZM44.8265 28.4954H47.8105C48.6014 28.4954 49.2665 28.2138 49.8058 27.6505C50.345 27.0753 50.6147 26.4042 50.6147 25.6373V8.48854C50.6147 7.7096 50.339 7.0445 49.7878 6.49325C49.2365 5.93001 48.5774 5.64839 47.8105 5.64839H44.8265V28.4954Z" fill="white"/>
<path d="M67.5117 5.54054H62.2629V0.597246H77.6859V5.54054H72.455V33.3848H67.5117V5.54054Z" fill="white"/>
<path d="M88.9027 0.201782C91.0838 0.201782 92.9352 0.968742 94.4572 2.50266C95.9911 4.03658 96.7581 5.88807 96.7581 8.05713V25.9429C96.7581 28.1239 95.9911 29.9814 94.4572 31.5153C92.9233 33.0372 91.0718 33.7982 88.9027 33.7982C86.7337 33.7982 84.8882 33.0312 83.3662 31.4973C81.8563 29.9634 81.1013 28.1119 81.1013 25.9429V8.05713C81.1013 5.87608 81.8683 4.0246 83.4022 2.50266C84.9361 0.968742 86.7696 0.201782 88.9027 0.201782ZM91.5991 7.94927C91.5991 7.15835 91.3234 6.49325 90.7722 5.95398C90.2329 5.40273 89.5678 5.1271 88.7769 5.1271C87.9979 5.1271 87.3269 5.40273 86.7636 5.95398C86.2124 6.49325 85.9367 7.15835 85.9367 7.94927V25.9069C85.9367 26.6859 86.2124 27.351 86.7636 27.9022C87.3269 28.4535 87.9979 28.7291 88.7769 28.7291C89.5678 28.7291 90.2329 28.4535 90.7722 27.9022C91.3234 27.351 91.5991 26.6859 91.5991 25.9069V7.94927Z" fill="white"/>
<path d="M120.468 0.597246H125.645L120.522 33.3848H115.776L112.99 15.499L110.366 33.3848H105.638L100.155 0.597246H105.332L107.921 18.1594L110.294 0.597246H115.471L118.059 18.1594L120.468 0.597246Z" fill="white"/>
<path d="M135.37 0.597246L141.913 22.6174V0.597246H146.856V33.3848H141.553L134.741 12.3892V33.3848H129.815V0.597246H135.37Z" fill="white"/>
</svg>
