<svg width="34" height="36" viewBox="0 0 34 36" fill="none" xmlns="http://www.w3.org/2000/svg">
<path d="M17.0001 20.448C11.4311 20.448 6.74146 15.84 6.74146 10.368C6.74146 4.896 11.4311 0 17.0001 0C22.569 0 27.2587 4.608 27.2587 10.08C27.2587 15.552 22.8621 20.448 17.0001 20.448ZM17.0001 2.304C12.6035 2.304 9.08628 5.76 9.08628 10.08C9.08628 14.4 12.6035 17.856 17.0001 17.856C21.3966 17.856 24.9139 14.4 24.9139 10.08C24.9139 5.76 21.3966 2.304 17.0001 2.304Z" fill="white"/>
<path d="M32.8276 36H1.17241C0.586207 36 0 35.424 0 34.848C0 25.632 7.62069 18.144 17 18.144C26.3793 18.144 34 25.632 34 34.848C34 35.424 33.7069 36 32.8276 36ZM2.34483 33.696H31.6552C31.069 26.208 24.6207 20.448 17 20.448C9.37931 20.448 2.93103 26.208 2.34483 33.696Z" fill="white"/>
</svg>
